<?xml version="1.0" encoding="utf-8"?>
<!-- Generator: Adobe Illustrator 23.0.1, SVG Export Plug-In . SVG Version: 6.00 Build 0)  -->
<svg version="1.1" id="Layer_1" xmlns="http://www.w3.org/2000/svg" xmlns:xlink="http://www.w3.org/1999/xlink" x="0px" y="0px"
	 viewBox="0 0 195 82" style="enable-background:new 0 0 195 82;" xml:space="preserve">
<style type="text/css">
	.st0{opacity:0.55;fill:#716F82;enable-background:new    ;}
	.st1{fill:#9995A7;}
	.st2{fill:#FFFFFF;}
	.st3{opacity:0.64;fill:#9995A7;enable-background:new    ;}
	.st4{fill:#BCDB3A;}
	.st5{fill:#F98D43;}
	.st6{fill:#5472C6;}
	.st7{fill:#F7C946;}
	.st8{fill:#F24976;}
	.st9{fill:#2C3765;}
	.st10{fill:none;stroke:#2C3765;stroke-width:1.23;stroke-miterlimit:10;}
	.st11{fill:#A3ADD1;}
	.st12{fill:#B7C5ED;}
</style>
<title>SVG logo combined with the W3C logo, set horizontally</title>
<desc>
	The logo combines three entities displayed horizontally: the W3C logo with the text &apos;W3C&apos;; the drawing of a flower or star shape with eight arms; and the text &apos;SVG&apos;. These three entities are set horizontally.
	</desc>
<g>
	<g>
		<rect x="41.3" y="18.1" class="st0" width="111.1" height="60.6"/>
		<rect x="41.3" y="14.4" class="st1" width="111.1" height="62.1"/>
		<rect x="43" y="16.4" class="st2" width="107.5" height="57.8"/>
		<polygon class="st3" points="68.8,41.6 74,41.7 73.7,36.1 		"/>
		<polygon class="st3" points="68.8,49.3 74,49.4 73.7,43.8 		"/>
		<polygon class="st3" points="75.4,49 81,49.4 80.6,43.8 		"/>
		<polygon class="st3" points="82.8,41.6 87.9,41.7 87.6,36.1 		"/>
		<polygon class="st3" points="82.3,32.8 87.9,33.1 87.6,27.6 		"/>
		<polygon class="st3" points="92.8,32.7 98.4,33.1 98,27.5 		"/>
		<polygon class="st3" points="93.1,25.9 98.7,26.2 98.4,20.6 		"/>
		<polygon class="st3" points="100.3,25.9 105.8,26.2 105.5,20.6 		"/>
		<polygon class="st3" points="93.7,41.6 98.7,41.6 98.4,36 93.5,37.2 		"/>
		<polygon class="st3" points="100.9,41.6 105.8,41.8 105.4,36.2 		"/>
		<polygon class="st3" points="93.4,49.3 98.6,49.5 98.3,43.9 		"/>
		<polygon class="st3" points="100.3,49.1 105.9,49.5 105.5,43.9 		"/>
		<polygon class="st3" points="106.8,49.1 112.4,49.4 112.1,43.8 		"/>
		<polygon class="st3" points="93.2,57.5 98.8,57.8 98.5,52.2 		"/>
		<polygon class="st3" points="116,32.8 121.6,33.2 121.2,27.6 		"/>
		<polygon class="st3" points="122,32.8 127.6,33.1 127.2,27.5 		"/>
		<polygon class="st3" points="122.1,41.4 127.7,41.8 127.3,36.2 		"/>
		<polygon class="st3" points="116,41.4 121.6,41.8 121.3,36.2 		"/>
		<polygon class="st3" points="116,49.1 121.6,49.5 121.2,43.9 		"/>
		<polygon class="st3" points="122.2,49.1 127.7,49.4 127.4,43.8 		"/>
		<polygon class="st3" points="130.4,32.8 136,33.2 135.6,27.6 		"/>
		<polygon class="st3" points="130.1,41.5 135.6,41.9 135.3,36.3 		"/>
		<polygon class="st3" points="130.4,49.1 136,49.4 135.6,43.8 		"/>
		<polygon class="st3" points="130.1,57.4 135.7,57.7 135.4,52.2 		"/>
		<polygon class="st3" points="122.2,57.4 127.8,57.7 127.5,52.2 		"/>
		<polygon class="st3" points="116.1,57.4 121.7,57.7 121.3,52.2 		"/>
		<polygon class="st3" points="82.3,25.8 87.9,26.2 87.5,20.6 		"/>
		<polygon class="st3" points="75.5,25.9 81.1,26.3 80.7,20.7 		"/>
		<polygon class="st3" points="68.5,25.9 74.1,26.3 73.7,20.7 		"/>
		<polygon class="st3" points="68.5,32.8 74,33.1 73.7,27.6 		"/>
		<polygon class="st3" points="75.5,32.7 81,33.1 80.7,27.5 		"/>
		<polygon class="st3" points="75.9,41.6 80.9,41.6 80.7,36 		"/>
		<rect x="68.4" y="20.7" class="st4" width="5.2" height="5.2"/>
		<rect x="75.5" y="20.7" class="st5" width="5.2" height="5.2"/>
		<rect x="82.3" y="20.7" class="st4" width="5.2" height="5.2"/>
		<rect x="68.4" y="27.5" class="st5" width="5.2" height="5.2"/>
		<rect x="75.5" y="27.5" class="st5" width="5.2" height="5.2"/>
		<rect x="82.3" y="27.5" class="st4" width="5.2" height="5.2"/>
		<rect x="93.1" y="20.7" class="st4" width="5.2" height="5.2"/>
		<rect x="100.2" y="20.7" class="st4" width="5.2" height="5.2"/>
		<rect x="92.8" y="27.5" class="st6" width="5.2" height="5.2"/>
		<rect x="68.4" y="36.1" class="st4" width="5.2" height="5.2"/>
		<rect x="75.5" y="36.1" class="st5" width="5.2" height="5.2"/>
		<rect x="68.4" y="43.7" class="st6" width="5.2" height="5.2"/>
		<rect x="93.1" y="52.1" class="st4" width="5.2" height="5.2"/>
		<rect x="75.5" y="43.7" class="st5" width="5.2" height="5.2"/>
		<rect x="68.4" y="51.8" class="st4" width="5.2" height="5.2"/>
		<rect x="75.5" y="51.8" class="st7" width="5.2" height="5.2"/>
		<rect x="76.2" y="59.8" class="st6" width="5.2" height="5.2"/>
		<rect x="83.2" y="59.8" class="st6" width="5.2" height="5.2"/>
		<rect x="115.9" y="27.6" class="st5" width="5.2" height="5.2"/>
		<rect x="115.9" y="36.2" class="st8" width="5.2" height="5.2"/>
		<rect x="115.9" y="43.8" class="st5" width="5.2" height="5.2"/>
		<rect x="106.8" y="43.8" class="st8" width="5.2" height="5.2"/>
		<rect x="100.2" y="43.8" class="st5" width="5.2" height="5.2"/>
		<rect x="93.1" y="43.8" class="st8" width="5.2" height="5.2"/>
		<rect x="115.9" y="52.1" class="st8" width="5.2" height="5.2"/>
		<rect x="115.9" y="60.2" class="st5" width="5.2" height="5.2"/>
		<rect x="122.1" y="27.6" class="st4" width="5.2" height="5.2"/>
		<rect x="122.1" y="36.2" class="st4" width="5.2" height="5.2"/>
		<rect x="122.1" y="43.8" class="st4" width="5.2" height="5.2"/>
		<rect x="122.1" y="52.1" class="st4" width="5.2" height="5.2"/>
		<rect x="122.1" y="60.2" class="st4" width="5.2" height="5.2"/>
		<rect x="82.3" y="36.1" class="st4" width="5.2" height="5.2"/>
		<rect x="93.1" y="36.1" class="st7" width="5.2" height="5.2"/>
		<rect x="100.2" y="36.1" class="st7" width="5.2" height="5.2"/>
		<rect x="130.3" y="27.6" class="st7" width="5.2" height="5.2"/>
		<rect x="130.1" y="36.2" class="st6" width="5.2" height="5.2"/>
		<rect x="130.3" y="43.8" class="st7" width="5.2" height="5.2"/>
		<rect x="130.1" y="52.1" class="st6" width="5.2" height="5.2"/>
		<rect x="130.3" y="60.2" class="st7" width="5.2" height="5.2"/>
		<rect x="50.2" y="29.1" class="st9" width="7.8" height="0.9"/>
		<rect x="50.2" y="25.3" class="st9" width="12.4" height="0.9"/>
		<rect x="50.2" y="27.2" class="st9" width="8.3" height="0.9"/>
		<rect x="50.2" y="23.4" class="st9" width="7.8" height="0.9"/>
		<rect x="59.3" y="23.4" class="st9" width="3.1" height="0.9"/>
		<rect x="50.2" y="59.5" class="st9" width="7.8" height="0.9"/>
		<rect x="50.2" y="55.7" class="st9" width="12.4" height="0.9"/>
		<rect x="50.2" y="57.6" class="st9" width="8.3" height="0.9"/>
		<rect x="50.2" y="53.8" class="st9" width="7.8" height="0.9"/>
		<rect x="59.3" y="53.8" class="st9" width="3.1" height="0.9"/>
		<rect x="50" y="39.2" class="st9" width="12" height="0.9"/>
		<rect x="50" y="43" class="st9" width="12.4" height="0.9"/>
		<rect x="50" y="41.1" class="st9" width="8.3" height="0.9"/>
		<rect x="50" y="44.9" class="st9" width="7.8" height="0.9"/>
		<path class="st10" d="M76.3,22.2c0.9,0,1.8,0,2.8,0"/>
		<path class="st10" d="M76.5,22.9c0.5,0,0.9,0,1.4-0.1"/>
		<path class="st10" d="M83,22l3.1,0"/>
		<path class="st10" d="M83.3,22.7l3-0.2"/>
		<path class="st10" d="M84.2,24.7l2.2-0.1"/>
		<path class="st10" d="M69.3,29.5l1.4,0.1"/>
		<path class="st10" d="M71.4,29.8l1.1,0.2"/>
		<path class="st10" d="M69.1,31l3,0.1"/>
		<path class="st10" d="M76.5,36.8l3.2,0.3"/>
		<path class="st10" d="M76.7,37.7c0.9,0.1,1.7,0.1,2.6,0.1"/>
		<path class="st10" d="M76.8,38.6h0.7"/>
		<path class="st10" d="M83.2,38.8l3.7-0.2"/>
		<path class="st10" d="M83.6,38.1l3-0.2"/>
		<path class="st10" d="M83.5,37.3h1.8"/>
		<path class="st10" d="M83.8,36.7l0.5,0.1"/>
		<path class="st10" d="M69.4,37.2c1-0.1,2,0,3,0.1"/>
		<path class="st10" d="M70.3,38.1c0.3,0.1,0.6,0.1,0.8,0"/>
		<path class="st10" d="M82.9,28.4c0.9,0,1.9,0,2.8-0.2"/>
		<path class="st10" d="M83,29.2l1.5-0.1"/>
		<path class="st10" d="M83.1,31.1l2.5-0.1"/>
		<path class="st10" d="M69.3,21.8c1.2,0,2.5,0,3.7-0.1"/>
		<path class="st10" d="M69.9,22.7c1-0.1,2,0,2.9,0.1"/>
		<path class="st10" d="M70.4,24l1.7,0"/>
		<path class="st10" d="M69,44.8l3.8,0.1"/>
		<path class="st10" d="M69.3,45.6l2.9,0"/>
		<path class="st10" d="M69.6,46.5l2.9,0"/>
		<path class="st10" d="M77,45.3l1.9,0.2"/>
		<path class="st10" d="M77.4,46.2h1.3"/>
		<polygon class="st3" points="137.1,26 142.7,26.4 142.4,20.8 		"/>
		<rect x="137.2" y="20.8" class="st5" width="5.2" height="5.2"/>
		<path class="st10" d="M138.8,22.3l1.9,0.2"/>
		<path class="st10" d="M139.1,23.3h1.3"/>
		<polygon class="st3" points="136.7,49.3 142.3,49.6 142,44.1 		"/>
		<rect x="136.8" y="44" class="st5" width="5.2" height="5.2"/>
		<path class="st10" d="M138.4,45.5l1.9,0.2"/>
		<path class="st10" d="M138.7,46.5h1.3"/>
		<path class="st10" d="M94,28.7l2.3,0.2"/>
		<path class="st10" d="M94.1,29.6l1.8-0.1"/>
		<path class="st10" d="M94.3,22.6l2.3,0.1"/>
		<path class="st10" d="M94.6,23.7l1.6-0.1"/>
		<polygon class="st3" points="130.6,25.9 136.2,26.2 135.8,20.6 		"/>
		<rect x="130.6" y="20.7" class="st4" width="5.2" height="5.2"/>
		<path class="st10" d="M131.7,22.6l2.3,0.1"/>
		<path class="st10" d="M132.1,23.7l1.6-0.1"/>
		<path class="st10" d="M94.6,38c-0.3,0.6,0.2,1.5,0.9,1.6c0.7,0.1,1.4-0.6,1.3-1.3c-0.1-0.7-1-1.2-1.6-0.8"/>
		<path class="st10" d="M96.6,40.4l-0.4-1"/>
		<path class="st10" d="M97.1,37.5c-0.3,0-0.5,0.2-0.6,0.4"/>
		<path class="st10" d="M94,40.1c0.4-0.2,0.7-0.5,0.9-0.8"/>
		<path class="st10" d="M101.1,36.9v0.9"/>
		<path class="st10" d="M104.4,37v0.5"/>
		<line class="st10" x1="101.1" y1="37.6" x2="104.3" y2="37.6"/>
		<line class="st10" x1="101.5" y1="36.7" x2="104.2" y2="36.7"/>
		<line class="st10" x1="101" y1="38.5" x2="104" y2="38.5"/>
		<line class="st10" x1="101.2" y1="39.3" x2="104" y2="39.3"/>
		<line class="st10" x1="101.2" y1="44.7" x2="103.7" y2="44.7"/>
		<line class="st10" x1="101.1" y1="45.4" x2="103.5" y2="45.4"/>
		<line class="st10" x1="101.3" y1="46.2" x2="103.8" y2="46.2"/>
		<line class="st10" x1="101.5" y1="47.2" x2="103.6" y2="47.2"/>
		<line class="st10" x1="94.6" y1="45.2" x2="97" y2="45.2"/>
		<line class="st10" x1="94.6" y1="46.2" x2="96.8" y2="46.2"/>
		<path class="st10" d="M103,22.6c0.2,0,0.4,0,0.5-0.1c0.2-0.1,0.3-0.2,0.3-0.4c0-0.2-0.1-0.4-0.3-0.6c-0.2-0.1-0.4-0.2-0.6-0.2
			c-0.4-0.1-1.3-0.1-1.3,0.5C101.6,22.5,102.5,22.5,103,22.6z"/>
		<path class="st10" d="M102.2,22.5l-0.7,1.3"/>
		<path class="st10" d="M101.6,23c0,0.3-0.1,0.6-0.1,0.9c0.1-0.1,0.3-0.2,0.5-0.2"/>
		<path class="st10" d="M103.1,22.6c0.1,0.5,0.2,0.9,0.3,1.4"/>
		<path class="st10" d="M103,23.6c0,0.2,0.2,0.4,0.4,0.5l0.1-0.7"/>
		<path class="st10" d="M100.8,24.8l0.8,0.1"/>
		<line class="st10" x1="100.7" y1="25.3" x2="101.6" y2="25.3"/>
		<path class="st10" d="M103.1,24.7l0.9,0.2"/>
		<path class="st10" d="M103.2,25.3l1,0.1"/>
		<path class="st10" d="M76.4,28.3v1.1"/>
		<line class="st10" x1="76.4" y1="29.3" x2="79.5" y2="29.3"/>
		<line class="st10" x1="76.4" y1="28.4" x2="79.4" y2="28.4"/>
		<line class="st10" x1="79.5" y1="28.6" x2="79.5" y2="29.6"/>
		<path class="st10" d="M76.5,30.1c0.3-0.3,0.8-0.4,1.2-0.1c0.3,0.3,0.4,0.8,0.1,1.2c-0.3,0.3-0.8,0.4-1.2,0.1c0,0,0,0,0,0
			C76.3,31,76.3,30.5,76.5,30.1"/>
		<path class="st10" d="M78.5,30.3l1.3,0.1"/>
		<path class="st10" d="M78.6,30.9c0.4-0.1,0.8-0.1,1.1,0"/>
		<path class="st10" d="M78.6,31.6h0.8"/>
		<line class="st10" x1="116.6" y1="39.5" x2="118.9" y2="39.5"/>
		<line class="st10" x1="116.9" y1="38.9" x2="119.7" y2="38.9"/>
		<line class="st10" x1="117" y1="37.9" x2="119.4" y2="37.9"/>
		<path class="st10" d="M122.8,28.7c-0.1,0.4,0.1,0.7,0.4,0.9c0.3,0.1,0.7,0,0.9-0.3c0.1-0.3,0-0.7-0.3-0.8c0,0,0,0,0,0
			c-0.3-0.1-0.6,0.1-0.7,0.4c0,0,0,0.1,0,0.1"/>
		<path class="st10" d="M125.5,28.6c-0.2,0.3-0.2,0.6,0.1,0.9c0,0,0.1,0.1,0.1,0.1c0.4,0.1,0.8-0.2,0.7-0.6
			c-0.1-0.4-0.6-0.5-0.9-0.2"/>
		<path class="st10" d="M123.1,30.8l3.2-0.2"/>
		<path class="st10" d="M123.2,31.4l3.1-0.1"/>
		<line class="st10" x1="116.9" y1="28.8" x2="119.9" y2="28.8"/>
		<line class="st10" x1="116.9" y1="29.7" x2="120" y2="29.7"/>
		<line class="st10" x1="117.3" y1="30.6" x2="119.9" y2="30.6"/>
		<path class="st10" d="M123.2,37.2v1.2"/>
		<line class="st10" x1="123.2" y1="37.5" x2="126.5" y2="37.5"/>
		<line class="st10" x1="123.4" y1="38.5" x2="126.6" y2="38.5"/>
		<line class="st10" x1="126.4" y1="37.6" x2="126.4" y2="38.7"/>
		<line class="st10" x1="123.3" y1="39.2" x2="126" y2="39.2"/>
		<line class="st10" x1="123.4" y1="39.9" x2="126" y2="39.9"/>
		<line class="st10" x1="117.4" y1="45.3" x2="119.4" y2="45.3"/>
		<line class="st10" x1="117.5" y1="46.7" x2="119.4" y2="46.7"/>
		<line class="st10" x1="123.3" y1="45.9" x2="126.2" y2="45.9"/>
		<line class="st10" x1="123.8" y1="46.5" x2="125.9" y2="46.5"/>
		<line class="st10" x1="123.6" y1="47.2" x2="125.9" y2="47.2"/>
		<line class="st10" x1="131.3" y1="28.8" x2="134.5" y2="28.8"/>
		<line class="st10" x1="131.6" y1="29.6" x2="134.2" y2="29.6"/>
		<line class="st10" x1="131.7" y1="30.3" x2="133.4" y2="30.3"/>
		<line class="st10" x1="130.9" y1="38.3" x2="133.2" y2="38.3"/>
		<line class="st10" x1="131.3" y1="39.3" x2="133.4" y2="39.3"/>
		<line class="st10" x1="131.1" y1="45.5" x2="133.4" y2="45.5"/>
		<line class="st10" x1="131.1" y1="45.9" x2="133.4" y2="45.9"/>
		<line class="st10" x1="131.5" y1="46.6" x2="132.9" y2="46.6"/>
		<line class="st10" x1="117.1" y1="53.5" x2="119.5" y2="53.5"/>
		<line class="st10" x1="117" y1="54.5" x2="119.9" y2="54.5"/>
		<line class="st10" x1="123.5" y1="56.3" x2="126" y2="56.3"/>
		<line class="st10" x1="123.2" y1="55.1" x2="126.3" y2="55.1"/>
		<line class="st10" x1="123.5" y1="54.2" x2="125.9" y2="54.2"/>
		<line class="st10" x1="94.4" y1="53.9" x2="96.2" y2="53.9"/>
		<line class="st10" x1="94.4" y1="54.6" x2="96.1" y2="54.6"/>
		<line class="st10" x1="77" y1="60.9" x2="79.9" y2="60.9"/>
		<line class="st10" x1="77.1" y1="61.8" x2="80.2" y2="61.8"/>
		<line class="st10" x1="77.4" y1="62.9" x2="79.6" y2="62.9"/>
		<line class="st10" x1="69.1" y1="52.5" x2="71.4" y2="52.5"/>
		<line class="st10" x1="69.2" y1="53.2" x2="71.4" y2="53.2"/>
		<line class="st10" x1="69.2" y1="54" x2="71.7" y2="54"/>
		<line class="st10" x1="69.4" y1="55.7" x2="71" y2="55.7"/>
		<line class="st10" x1="122.8" y1="61.2" x2="125.8" y2="61.2"/>
		<line class="st10" x1="123" y1="62.4" x2="126.2" y2="62.4"/>
		<line class="st10" x1="123.1" y1="63.5" x2="125.7" y2="63.5"/>
		<rect x="66" y="20.9" class="st1" width="0.5" height="50.1"/>
		<rect x="89.9" y="20.9" class="st1" width="0.5" height="50.1"/>
		<rect x="50" y="34.5" class="st1" width="93.6" height="0.5"/>
		<rect x="50" y="50.4" class="st1" width="93.6" height="0.5"/>
		<rect x="50" y="66.4" class="st1" width="93.6" height="0.5"/>
		<rect x="114" y="20.9" class="st1" width="0.5" height="50.1"/>
		<rect x="128.4" y="20.9" class="st1" width="0.5" height="50.1"/>
		<rect x="41.3" y="14.3" class="st0" width="111.1" height="2.6"/>
		<rect x="39.7" y="11.5" class="st11" width="114.2" height="3.3"/>
		<polygon class="st12" points="91.1,11.5 90.4,14.8 65.1,14.8 65.8,11.5 		"/>
		<polygon class="st12" points="107.7,11.5 107,14.8 96.1,14.8 96.8,11.5 		"/>
	</g>
</g>
</svg>
